PathFileType	4	(X/Y/Z)	C:/Users/beibeiliu/ov580/test_trc/User3\sequence.9_training_dense_left.trc
DataRate	CameraRate	NumFrames	NumMarkers	Units	OrigDataRate	OrigDataStartFrame	OrigNumFrames
120	120	7	19	mm	120	49	73
Frame#	Time	ThumbCMC			ThumbMCP			ThumbIP			ThumbTip			IndexMCP			IndexPIP			IndexTip			MiddleMCP			MiddlePIP			MiddleTip			RingMCP			RingPIP			RingTip			PinkyMCP			PinkyPIP			PinkyTip			BackHand1			BackHand2			BackHand3	
		X0	Y0	Z0	X1	Y1	Z1	X2	Y2	Z2	X3	Y3	Z3	X4	Y4	Z4	X5	Y5	Z5	X6	Y6	Z6	X7	Y7	Z7	X8	Y8	Z8	X9	Y9	Z9	X10	Y10	Z10	X11	Y11	Z11	X12	Y12	Z12	X13	Y13	Z13	X14	Y14	Z14	X15	Y15	Z15	X16	Y16	Z16	X17	Y17	Z17	X18	Y18	Z18	
48	0.4	-157.808	26.6495	-16.9676	-140.115	38.414	-37.5226	-125.595	51.1048	-64.1201	-110.807	55.8012	-78.1203	-101.993	22.8926	-77.2205	-82.3289	29.1362	-90.3166	-62.2761	33.796	-104.31	-87.733	6.52853	-72.4462	-66.8995	19.3881	-88.9988	-43.0591	30.4599	-106.017	-82.1474	-3.95822	-57.6411	-59.4038	-0.878506	-70.038	-39.7517	9.83753	-86.3981	-77.3393	-18.6107	-41.1188	-60.9122	-11.5889	-52.2809	-46.7646	-8.69882	-62.436	-126.165	-27.3786	-30.4505	-144.714	-31.7092	-14.7043	-152.326	-6.14781	-33.4136	
49	0.408333	-166.97	14.7763	-23.8526	-156.355	24.7132	-43.9943	-147.919	35.2236	-71.3631	-140.833	44.4795	-91.0101	-117.167	15.0674	-87.3663	-103.25	25.5256	-105.613	-89.146	32.1931	-121.673	-100.162	5.2753	-83.7194	-84.3009	17.6099	-100.683	-63.7919	29.39	-123.531	-87.0992	-2.11567	-67.7326	-73.1778	8.23442	-84.0662	-56.8217	14.466	-100.566	-85.5004	-10.51	-44.8988	-71.0301	-1.15071	-60.9767	-53.4614	1.26228	-77.8529	-121.212	-30.3318	-33.7043	-138.812	-36.0234	-10.4446	-153.784	-17.1372	-33.837	
50	0.416667	-175.98	0.0699932	-18.1005	-171.871	7.344	-47.8727	-169.071	13.5239	-75.0856	-170.835	20.7244	-96.5267	-143.201	-6.98376	-90.5649	-128.44	-2.89395	-115.582	-121.921	3.28771	-136.279	-120.116	-14.164	-91.4975	-109.936	-5.53474	-115.97	-97.9312	3.62534	-140.623	-106.121	-16.205	-77.2216	-92.8522	-8.79583	-99.7632	-83.0589	-1.64234	-123.268	-93.1821	-17.6156	-59.3014	-82.9462	-13.3167	-74.3943	-76.9234	-9.54374	-93.9606	-126.14	-39.2691	-31.4459	-134.497	-45.8326	-7.08984	-158.787	-32.3289	-30.0377	
51	0.425	-183.957	-7.52567	-15.9549	-187.904	-2.44912	-45.7017	-187.283	-2.97495	-74.4871	-192.643	-0.362968	-99.3082	-166.587	-32.3306	-92.1362	-161.819	-32.0856	-118.474	-154.315	-31.9859	-144.112	-148.829	-40.9032	-94.6027	-147.189	-38.2041	-120.425	-135.562	-34.0353	-155.938	-133.246	-40.7299	-85.3535	-127.489	-38.9889	-110.562	-117.798	-37.4003	-133.182	-112.454	-42.0203	-66.2386	-109.566	-38.7438	-90.6217	-107.514	-35.779	-110.634	-141.905	-52.6057	-34.0702	-142.572	-54.9782	-4.50911	-174.447	-43.2884	-26.3665	
52	0.433333	-183.703	-8.21047	-16.4357	-189.819	-2.39386	-41.8229	-201.347	-3.60878	-76.6938	-204.474	-0.491287	-95.7217	-190.251	-39.5974	-86.7191	-191.484	-43.2819	-113.206	-189.127	-47.0763	-140.222	-179.38	-55.8874	-95.6409	-183.238	-54.5328	-118.994	-181.967	-52.65	-153.318	-159.772	-60.5099	-83.9513	-163.75	-60.4965	-110.644	-160.284	-63.0102	-138.131	-141.806	-63.7877	-71.434	-143.62	-63.7787	-95.8145	-143.76	-67.183	-119.605	-163.984	-61.0348	-34.5314	-161.195	-63.3365	-1.42029	-190.271	-41.5703	-23.7285	
53	0.441667	-177.218	3.37651	-13.7508	-187.53	7.85848	-44.4834	-197.602	11.3817	-73.4279	-200.315	12.8783	-91.6443	-206.768	-25.1481	-81.4266	-213.229	-28.4813	-108.957	-217.041	-31.7676	-131.263	-206.704	-41.4015	-90.4004	-211.818	-44.6367	-116.904	-214.159	-46.7252	-147.203	-192.872	-53.9639	-82.0882	-196.076	-59.0837	-105.012	-200.326	-60.0793	-129.996	-175.774	-66.5191	-67.6464	-180.876	-67.1846	-91.2242	-185.266	-70.2877	-112.779	-187.242	-59.2724	-26.592	-183.058	-56.897	-0.629381	-200.274	-25.018	-19.6024	
54	0.45	-166.77	10.7561	-16.4148	-171.374	17.8843	-41.1373	-181.548	26.1057	-70.5151	-185.141	28.4316	-89.8668	-208.181	-0.800102	-79.1208	-218.446	-0.990764	-107.231	-224.134	-2.51544	-126.821	-216.227	-20.0107	-84.4178	-223.081	-15.7751	-112.848	-230.821	-15.085	-142.382	-209.965	-37.8503	-76.9971	-218.871	-38.62	-102.884	-223.44	-35.9802	-126.319	-201.742	-52.1907	-66.5671	-207.699	-51.478	-87.0235	-212.027	-50.2167	-109.7	-204.352	-38.7697	-25.3108	-194.63	-41.1724	3.11184	-195.487	-3.99603	-15.718	
